# xmcd
#
# Track frame offsets:
#	150
#	42769
#	111197
#	126158
#	158865
#	192758
#	235190
#	241090
#	282459
#
# Disc length: 3898 seconds
#
# Revision: 1
# Processed by: cddbd v1.5.2PL0 Copyright (c) Steve Scherf et al.
# Submitted via: audiograbber 1.83.01
#
DISCID=740f3809
DTITLE=Grateful Dead - 78-05-17A Uptown Theatre, Chicago IL
DYEAR=1900
DGENRE=
TTITLE0=Mississippi Half-Step
TTITLE1=Franklin's Tower
TTITLE2=Me and My Uncle
TTITLE3=Big River
TTITLE4=It Must Have Been The Roses
TTITLE5=Looks Like Rain
TTITLE6="Happy Birthday Stevie"
TTITLE7=Tennessee Jed
TTITLE8="Broken String and Happy Birthdays"
EXTD=
EXTT0=
EXTT1=
EXTT2=
EXTT3=
EXTT4=
EXTT5=
EXTT6=
EXTT7=
EXTT8=
PLAYORDER=
